<?xml version="1.0" encoding="utf-8"?>
<svg version="1.1" id="Layer_1" xmlns="http://www.w3.org/2000/svg" xmlns:xlink="http://www.w3.org/1999/xlink" x="0px" y="0px"
	 viewBox="-479 121 1200 1200" style="enable-background:new -479 121 1200 1200;" xml:space="preserve">
<style type="text/css">
	.st0{fill:#439AFF;}
	.st1{fill:#B4FF57;}
</style>
<g>
	<g id="layerbg1">
		<path class="st0" d="M480.6,1012.2c-0.2-0.4,3.8-6.2,9-12.7c47.7-60.3,80.8-134.6,93.8-210.5c5.1-30,6-42,6-80
			c0-37.9-0.8-49.8-6-80c-23-135-105.8-254.5-225.1-324.9c-14.8-8.7-48.5-25.2-64.5-31.5c-38.1-15-78.9-25.1-122.3-30.3
			c-21.4-2.5-79.6-2.5-101,0c-57.6,6.9-107.2,21.4-157.2,46.1c-31.3,15.5-58.9,32.9-84.6,53.5c-7.5,6-13.8,10.6-14.1,10.3
			c-0.3-0.3-0.6-9.2-0.6-19.8v-19.3l4.4-3.7c12.7-10.6,40-28.3,63.3-41.1c61.1-33.5,129.5-53.7,200.7-59.3c16.6-1.3,60.6-1.3,77.2,0
			c115,9.1,221.2,56,304.5,134.6c92.2,87,146.2,199.2,156.9,325.9c1.3,15.5,1.3,63.5,0,79c-8,94.3-40.6,182.3-94.7,255.8l-6.5,8.7
			h-19.3C489.8,1013,480.9,1012.6,480.6,1012.2z"/>
	</g>
	<g id="layerbg2">
		<path class="st1" d="M80.5,1208.9c-113.4-9.2-220-56.5-302.5-134.4c-92.3-87.2-146.3-199.3-157-326c-1.3-15.5-1.3-63.5,0-79
			c8.9-105.5,47.9-201,114.5-281c16.2-19.4,49.4-53.3,50.8-51.8c0.4,0.3,0.7,158.7,0.7,352V1040h353.9c216.8,0,354.2,0.4,354.6,0.9
			c1.3,2.2-32.4,35.6-54,53.6c-80.1,66.8-177.2,106.2-281.9,114.5C144.8,1210.2,95.3,1210.1,80.5,1208.9z"/>
	</g>
	<g id="layer101">
		<path class="st0" d="M481.7,1010.8c0.6-0.7,4.9-6.2,9.7-12.3c46.9-59.4,80.1-134.1,93-209.5c5.1-30,6-42,6-80
			c0-37.9-0.8-49.8-6-80c-23-135.2-106.3-255.2-226.1-325.9c-14.8-8.7-48.5-25.2-64.5-31.5c-38.1-15-78.9-25.1-122.3-30.3
			c-21.4-2.5-79.6-2.5-101,0c-57.6,6.9-107.2,21.4-157.2,46.1c-31.3,15.5-58.9,32.9-84.7,53.6l-13.6,10.9v-19.4V313l5.8-4.5
			c7.4-6,26-18.6,39.2-26.7C-73.7,241,2.9,216.3,82.4,210c16.6-1.3,60.6-1.3,77.2,0c114.8,9,221.5,56.2,304.2,134.3
			C555.5,431,609.3,543.1,620,669.5c1.3,15.5,1.3,63.5,0,79c-8,94.1-40.3,181.6-94.4,255.3l-6,8.2h-19.4
			C484.8,1012,481,1011.7,481.7,1010.8z"/>
	</g>
	<g id="layer102">
		<path class="st1" d="M80.5,1207.9c-113.3-9.2-220.2-56.7-302.3-134.2C-313.5,987-367.3,874.9-378,748.5c-1.3-15.5-1.3-63.5,0-79
			c7.5-88.4,35.2-167.8,84.3-240.9c18.6-27.8,42.6-56.1,70-82.5l9.7-9.4v352.2V1041l354.7,0.2l354.7,0.3l-9.6,10.2
			c-84.9,90.8-200.9,146.4-326.2,156.3C144.8,1209.2,95.3,1209.1,80.5,1207.9z"/>
	</g>
</g>
</svg>
