<svg xmlns="http://www.w3.org/2000/svg" xml:space="preserve" id="Layer_1" x="0" y="0" style="enable-background:new 0 0 2250 727" version="1.1" viewBox="0 0 2250 727"><style>.st2{fill:#439aff}.st3,.st4{fill:#b4ff57}.st4{fill-rule:evenodd;clip-rule:evenodd}</style><linearGradient id="SVGID_1_" x1="218.815" x2="659.163" y1="46.337" y2="486.685" gradientUnits="userSpaceOnUse"><stop offset="0" style="stop-color:#439aff"/><stop offset=".079" style="stop-color:#479cff"/><stop offset=".161" style="stop-color:#54a3ff"/><stop offset=".244" style="stop-color:#68aeff"/><stop offset=".329" style="stop-color:#85beff"/><stop offset=".414" style="stop-color:#abd2ff"/><stop offset=".498" style="stop-color:#d8eaff"/><stop offset=".5" style="stop-color:#d9ebff"/><stop offset=".502" style="stop-color:#d8eaff"/><stop offset=".586" style="stop-color:#abd2ff"/><stop offset=".671" style="stop-color:#85beff"/><stop offset=".755" style="stop-color:#68aeff"/><stop offset=".839" style="stop-color:#54a3ff"/><stop offset=".921" style="stop-color:#479cff"/><stop offset="1" style="stop-color:#439aff"/></linearGradient><path d="M141.62 175.43c47.76-39.59 109.07-63.39 175.95-63.39 152.37 0 275.89 123.52 275.89 275.89 0 66.88-23.8 128.2-63.39 175.95h51.9c33.59-50.37 53.18-110.87 53.18-175.95 0-175.39-142.18-317.57-317.57-317.57-65.08 0-125.58 19.59-175.95 53.18v51.89z" style="fill:url(#SVGID_1_)"/><linearGradient id="SVGID_00000160165143739960857540000008810297411453917593_" x1="93.015" x2="334.854" y1="612.485" y2="370.646" gradientUnits="userSpaceOnUse"><stop offset="0" style="stop-color:#b4ff57"/><stop offset=".097" style="stop-color:#b6ff5b"/><stop offset=".198" style="stop-color:#bbff68"/><stop offset=".3" style="stop-color:#c5ff7c"/><stop offset=".402" style="stop-color:#d1ff99"/><stop offset=".5" style="stop-color:#e1ffbc"/><stop offset=".598" style="stop-color:#d1ff99"/><stop offset=".7" style="stop-color:#c5ff7c"/><stop offset=".802" style="stop-color:#bbff68"/><stop offset=".903" style="stop-color:#b6ff5b"/><stop offset="1" style="stop-color:#b4ff57"/></linearGradient><path d="M110.97 594.53V146.76C43.04 205 0 291.43 0 387.93 0 563.32 142.18 705.5 317.57 705.5c96.49 0 182.92-43.04 241.17-110.97H110.97z" style="fill:url(#SVGID_00000160165143739960857540000008810297411453917593_)"/><path d="M1686.88 346.63c17.59-14.59 40.18-23.35 64.82-23.35 56.13 0 101.64 45.51 101.64 101.64 0 24.64-8.77 47.23-23.35 64.82h19.12c12.37-18.56 19.59-40.85 19.59-64.82 0-64.62-52.38-117-117-117-23.98 0-46.27 7.22-64.82 19.59v19.12z" class="st2"/><path d="M1675.58 501.04V336.07c-25.02 21.46-40.88 53.3-40.88 88.85 0 64.62 52.38 117 117 117 35.55 0 67.39-15.86 88.85-40.88h-164.97z" class="st3"/><path id="l_1_" d="M841.76 542.25h-25.03c-7.99-10.65-11.72-26.1-11.72-45.8V97.32h22.37v399.13c0 15.44 4.79 30.88 14.38 45.8z" class="st2"/><path id="u_1_" d="M1118.71 447.98c0 44.74-23.43 74.56-69.77 88.94-11.18 3.73-20.77 5.33-29.82 5.33-8.52 0-18.64-1.6-29.82-5.33-46.34-14.38-69.24-44.2-69.24-88.94V310.95h22.37v137.03c0 34.09 18.11 56.99 54.86 68.17 8.52 2.13 15.98 3.73 21.84 3.73 5.86 0 13.31-1.6 22.37-3.73 36.22-11.18 54.32-34.09 54.32-68.17V310.95h22.9l-.01 137.03z" class="st2"/><path id="m_1_" d="M1577.8 542.25h-22.37v-135.6c0-19.71-4.26-34.62-13.31-44.2-8.52-10.12-22.37-18.11-41.54-25.03-8.52-2.13-15.98-3.2-22.9-3.2-6.39 0-13.31 1.07-21.84 3.2-18.64 6.92-32.49 14.38-40.48 23.97-9.05 10.65-13.31 25.56-13.31 45.27v135.6h-22.9V399.19c0-18.64-7.99-34.62-25.03-47.4-14.91-11.72-31.96-17.58-51.66-17.58-6.92 0-13.85 1.07-21.84 3.2-19.71 6.92-33.02 14.38-41.01 23.97-9.05 10.65-13.85 25.56-13.85 45.27v135.6h-22.9V407.18c0-27.69 10.12-50.6 29.29-68.7 19.17-18.11 42.61-27.16 70.3-27.16 15.45 0 31.96 4.79 50.06 14.38 17.58 9.59 30.36 20.24 37.81 33.55 7.99-13.31 20.24-23.97 38.35-33.55 17.58-9.59 34.62-14.38 50.06-14.38 27.69 0 51.13 9.05 70.3 27.16s28.76 41.01 28.76 68.7l.01 135.07z" class="st2"/><path id="i_1_" d="M1972.44 542.25h-25.03c-7.99-10.65-11.72-26.1-11.72-46.34v-188h22.37v188c0 15.45 4.8 30.89 14.38 46.34z" class="st2"/><path id="n_1_" d="M2249.92 542.25h-22.9v-139.6c0-34.62-18.11-56.99-54.32-68.17-7.99-2.66-14.91-3.73-21.84-3.73-6.92 0-14.38 1.07-22.37 3.73-36.75 11.18-54.86 33.55-54.86 68.17v139.6h-22.37v-139.6c0-45.8 22.9-75.63 69.24-90.01 10.65-3.2 20.24-4.79 29.82-4.79 9.59 0 19.71 1.6 29.82 4.79 46.33 14.91 69.77 44.74 69.77 90.01v139.6z" class="st2"/><path id="B5_1_" d="M1962.36 157.7s46.82-1.48 68.5-17.74l27.6 9.36 13.8 6.41 1.48-20.2s-41.39-10.35-40.9-17.25c.49-6.41 16.26-27.1 10.35-44.35-6.41-16.76-12.81-17.25-12.81-17.25L2022 43.37s-17.25 16.76-17.25 20.7c-.49 3.94-14.78 24.64-13.8 34.5.49 9.36-36.47-.49-36.47-.49l18.73 19.22c-.01-.01-13.8 35.97-10.85 40.4z" class="st4"/><path id="B4_1_" d="M1650.92 56.68h14.78s12.81-34.5 15.28-35.48c2.46-.49 9.36-20.7 9.36-20.7s8.87 30.55-4.44 69.98l-.49 5.42 15.77 10.35-2.46 10.35-2.96 5.42s-3.94-11.83-7.39-11.83l-14.29-1.48s-21.69-20.2-23.16-32.03z" class="st4"/><path id="B3_1_" d="m1449.36 138.98 18.73 17.74s21.19 55.19 25.63 58.15c4.44 2.46 18.23-40.9 18.23-40.9l14.78-1.97 12.81 7.88-.49-6.9s-53.22-50.27-89.69-34z" class="st4"/><path id="B2_1_" d="M1251.75 71.46s46.32-37.45 51.25-45.34c1.97-2.96 5.42-4.44 9.36-4.44 1.48 0 2.96 0 4.44.49l18.73 4.93 6.9-6.9s-17.74-11.33-26.12-10.35c-8.87 1.48-10.84-11.83-40.9-4.44s-31.05 3.94-31.05 3.94l17.74 11.33c0 .02-11.33 46.35-10.35 50.78z" class="st4"/><path id="B1_1_" d="M924.53 221.77s14.29 11.83 14.29 15.77l-.99 9.36s38.93 4.44 42.38 4.93c3.45 0 21.68 8.87 21.68 8.87l10.35-6.41-8.87-6.9-16.76-13.31s18.73-39.92 2.96-65.05l-12.81 11.83s-23.65 28.09-22.18 36.47c1.48 8.38-30.06.99-30.06.99-.99-.49-2.96-.99-4.44-.99 1 1.97 2.48 3.45 4.45 4.44z" class="st4"/><path d="M865.62 628v55.32h-.94l-19.39-27.36c-4.81-6.78-9.68-13.66-14.62-20.65a6189.38 6189.38 0 0 0-15.44-21.77H805v89.48h10.8v-70.16h.88l19.52 27.55c5.86 8.28 11.23 15.89 16.13 22.81 4.9 6.92 9.56 13.53 13.99 19.8h10.1v-89.48h-10.79c-.01 4.98-.01 9.79-.01 14.46zm95.57 26.08v28.18c-1.51 2.3-3.18 4.39-5.02 6.27-1.84 1.88-3.87 3.4-6.09 4.55-2.22 1.15-4.66 1.73-7.34 1.73-4.6 0-7.8-1.29-9.6-3.86-1.8-2.57-2.7-6.32-2.7-11.26v-39.34l-10.35.44v41.35c0 7.24 1.52 12.75 4.58 16.56 3.05 3.81 7.88 5.71 14.5 5.71 3.51 0 6.67-.63 9.48-1.91 2.8-1.28 5.24-2.86 7.31-4.77 2.07-1.9 3.75-3.8 5.05-5.68h1.13l.38 10.98h9.04v-62.25H961.2c-.01 4.55-.01 8.99-.01 13.3zm82.9-14.81c-1.93 0-4.04.33-6.34 1-2.3.67-4.57 1.98-6.81 3.92-2.24 1.95-4.21 4.82-5.93 8.63h-1.07l-.31-12.67-9.04.63v62.26h10.35v-36.72c1.13-3.64 2.45-6.55 3.95-8.75 1.51-2.2 3.06-3.85 4.68-4.96 1.61-1.1 3.18-1.84 4.71-2.19 1.52-.36 2.89-.53 4.11-.53 1.46 0 2.75.08 3.86.25 1.11.17 2.35.37 3.73.63l.94-10.42c-1.05-.38-2.15-.65-3.32-.81-1.17-.19-2.34-.27-3.51-.27zm74.68 55.31c-1.84.53-3.54.79-5.08.79-3.93 0-6.85-1.13-8.76-3.39s-2.85-5.62-2.85-10.1V649h21.84v-8.22h-21.83v-22.46l-10.23 2.26v20.21h-11.99v8.22h11.99v35.33c0 4.61.74 8.38 2.23 11.33 1.49 2.95 3.67 5.15 6.56 6.59 2.89 1.44 6.4 2.16 10.54 2.16 1.8 0 3.55-.13 5.27-.4 1.72-.27 3.28-.65 4.7-1.13 1.42-.48 2.56-1.03 3.39-1.66l-.88-9.1c-1.43 1.1-3.07 1.93-4.9 2.45zm82.64-40.5v28.18c-1.51 2.3-3.18 4.39-5.03 6.27-1.84 1.88-3.87 3.4-6.08 4.55-2.22 1.15-4.66 1.73-7.34 1.73-4.61 0-7.81-1.29-9.6-3.86-1.8-2.57-2.7-6.32-2.7-11.26v-39.34l-10.36.44v41.35c0 7.24 1.53 12.75 4.59 16.56 3.05 3.81 7.89 5.71 14.5 5.71 3.51 0 6.67-.63 9.47-1.91 2.8-1.28 5.24-2.86 7.31-4.77 2.07-1.9 3.76-3.8 5.05-5.68h1.13l.37 10.98h9.04v-62.25h-10.35v13.3zm82.9-14.81c-1.92 0-4.04.33-6.34 1-2.3.67-4.57 1.98-6.81 3.92-2.23 1.95-4.21 4.82-5.93 8.63h-1.07l-.32-12.67-9.03.63v62.26h10.35v-36.72c1.13-3.64 2.45-6.55 3.96-8.75 1.5-2.2 3.06-3.85 4.67-4.96 1.61-1.1 3.18-1.84 4.71-2.19 1.53-.36 2.9-.53 4.11-.53 1.46 0 2.75.08 3.86.25 1.11.17 2.36.37 3.73.63l.94-10.42c-1.05-.38-2.16-.65-3.33-.81-1.16-.19-2.34-.27-3.5-.27zm79.16 3.13c-3.79-2.05-8.31-3.08-13.58-3.08-5.98 0-11.13 1.38-15.44 4.12-4.3 2.74-7.61 6.53-9.91 11.38-2.3 4.86-3.45 10.42-3.45 16.7 0 6.36 1.18 12 3.52 16.94 2.34 4.93 5.92 8.82 10.73 11.67 4.81 2.84 10.94 4.26 18.38 4.26 2.8 0 5.46-.17 7.97-.53s4.81-.86 6.9-1.51 3.94-1.41 5.52-2.29l-.44-9.35a32.475 32.475 0 0 1-6.18 2.64 42.85 42.85 0 0 1-6.52 1.47c-2.2.32-4.28.47-6.24.47-5.27 0-9.61-.95-13.02-2.86-3.41-1.9-5.96-4.61-7.63-8.13-1.4-2.94-2.08-6.47-2.31-10.35h43.03c.21-1.25.35-2.5.41-3.73s.09-2.62.09-4.17c0-5.81-1.03-10.7-3.08-14.65-2.05-3.94-4.97-6.95-8.75-9zm-23.28 8.13c2.74-1.95 6.01-2.92 9.82-2.92 4.73 0 8.56 1.54 11.48 4.61 2.93 3.08 4.39 7.56 4.39 13.46 0 .17-.01.35-.01.53l-33.97.3c.32-2.84.87-5.54 1.91-7.91 1.51-3.43 3.64-6.12 6.38-8.07zm170.68-34.3c-4.46-1.8-10.09-2.7-16.91-2.7h-31.63v89.49h11.17v-35.64h18.06c8.2 0 14.68-1.21 19.42-3.64 4.75-2.42 8.14-5.76 10.17-10.01 2.03-4.25 3.04-9.11 3.04-14.59 0-5.9-1.1-10.74-3.32-14.53-2.21-3.78-5.54-6.57-10-8.38zm-.72 33.83c-1.64 2.76-4.15 4.77-7.56 6.02-3.41 1.25-7.79 1.89-13.15 1.89h-15.93v-35.02h19.7c2.13 0 4.33.17 6.59.5 2.26.34 4.35 1.04 6.3 2.11 1.95 1.07 3.52 2.69 4.71 4.86 1.19 2.18 1.79 5.1 1.79 8.79-.01 4.47-.82 8.09-2.45 10.85zm82.46-10.79c-1.93 0-4.04.33-6.34 1-2.3.67-4.57 1.98-6.81 3.92-2.23 1.95-4.21 4.82-5.93 8.63h-1.07l-.32-12.67-9.03.63v62.26h10.35v-36.72c1.13-3.64 2.45-6.55 3.96-8.75 1.5-2.2 3.06-3.85 4.67-4.96 1.61-1.1 3.18-1.84 4.71-2.19 1.53-.36 2.9-.53 4.11-.53 1.46 0 2.75.08 3.86.25 1.11.17 2.36.37 3.73.63l.94-10.42c-1.05-.38-2.16-.65-3.33-.81-1.16-.19-2.33-.27-3.5-.27zm91.05 9.28c-2.67-2.93-5.94-5.21-9.78-6.84-3.85-1.63-8.27-2.44-13.24-2.44-6.45 0-12 1.4-16.66 4.2s-8.26 6.62-10.79 11.45c-2.53 4.84-3.8 10.37-3.8 16.6 0 4.35.68 8.5 2.04 12.45 1.36 3.96 3.36 7.46 6 10.51 2.63 3.06 5.9 5.47 9.82 7.25 3.91 1.77 8.44 2.66 13.58 2.66 6.4 0 11.91-1.45 16.54-4.35 4.62-2.91 8.18-6.86 10.7-11.83 2.51-4.98 3.76-10.54 3.76-16.69 0-4.56-.69-8.8-2.07-12.71-1.39-3.9-3.42-7.33-6.1-10.26zm-4.7 34.58c-1.51 3.64-3.77 6.59-6.78 8.85-3.01 2.26-6.8 3.39-11.36 3.39-4.64 0-8.51-1.13-11.61-3.39-3.1-2.26-5.41-5.21-6.94-8.85-1.53-3.64-2.29-7.51-2.29-11.61 0-4.35.79-8.28 2.36-11.8 1.56-3.51 3.9-6.29 6.99-8.34 3.1-2.05 6.91-3.08 11.42-3.08 4.19 0 7.81.97 10.86 2.88 3.06 1.92 5.42 4.63 7.09 8.1 1.67 3.48 2.51 7.56 2.51 12.24 0 4.1-.75 7.97-2.25 11.61zm82.99-11.83c-2.95-1.32-6.5-2.58-10.63-3.79-3.48-1.01-6.19-1.97-8.16-2.89-1.97-.92-3.35-1.97-4.14-3.14-.79-1.17-1.2-2.62-1.2-4.33 0-2.38.57-4.21 1.69-5.49 1.13-1.28 2.54-2.16 4.24-2.64 1.69-.48 3.4-.72 5.11-.72 1.51 0 3.24.18 5.21.53 1.96.35 4.02.94 6.15 1.76s4.2 1.85 6.21 3.11l.88-9.73c-1.51-.8-3.28-1.55-5.34-2.26-2.05-.71-4.28-1.28-6.71-1.72-2.42-.44-4.94-.66-7.53-.66-6.28 0-11.27 1.62-14.97 4.87-3.71 3.24-5.56 7.69-5.56 13.34 0 3.63.74 6.59 2.23 8.85s3.53 4.06 6.12 5.39c2.6 1.34 5.54 2.47 8.85 3.39 4.02 1.13 7.21 2.16 9.57 3.08 2.36.92 4.04 1.95 5.05 3.07 1.01 1.13 1.51 2.57 1.51 4.33 0 2.67-.58 4.72-1.72 6.12-1.15 1.4-2.7 2.36-4.64 2.88-1.95.53-4.07.79-6.37.79-2.38 0-4.76-.22-7.12-.66a41.7 41.7 0 0 1-6.83-1.88c-2.2-.81-4.26-1.77-6.19-2.86l-.81 9.73c1.72.88 3.73 1.67 6.03 2.36 2.3.69 4.76 1.24 7.38 1.66 2.61.42 5.21.63 7.81.63 5.44 0 9.86-.84 13.24-2.51 3.39-1.67 5.88-3.94 7.47-6.81 1.59-2.86 2.38-6.12 2.38-9.76 0-3.76-.79-6.71-2.38-8.85-1.61-2.15-3.88-3.87-6.83-5.19zm93.31-27.8c-3.99-2.82-8.84-4.23-14.53-4.23-2.97 0-5.7.4-8.19 1.22-2.49.82-4.69 1.91-6.62 3.27-1.92 1.36-3.51 2.86-4.77 4.48h-1.06l-.25-8.09-9.42.63v86.73l10.35-.38v-31.94h.94c1.54 1.97 3.27 3.63 5.18 4.99 1.9 1.36 4.02 2.41 6.37 3.14 2.34.74 4.9 1.1 7.66 1.1 5.94 0 10.89-1.51 14.84-4.55 3.95-3.03 6.9-7.02 8.85-11.98s2.92-10.35 2.92-16.16c0-6.19-1.05-11.74-3.14-16.63-2.1-4.92-5.14-8.77-9.13-11.6zm-.31 39.66c-1.32 3.54-3.39 6.41-6.21 8.63s-6.47 3.32-10.95 3.32c-2.6 0-4.94-.4-7.03-1.22s-3.97-1.98-5.62-3.49c-1.65-1.5-3.11-3.32-4.36-5.46v-27.67c1.3-1.88 2.83-3.46 4.61-4.74 1.78-1.28 3.71-2.24 5.8-2.89s4.22-.97 6.4-.97c4.39 0 8.01 1.05 10.86 3.14 2.84 2.09 4.97 4.88 6.37 8.38 1.41 3.49 2.11 7.35 2.11 11.57-.01 4.07-.67 7.87-1.98 11.4zm90.42-40.76c-3.79-2.05-8.31-3.08-13.58-3.08-5.98 0-11.13 1.38-15.44 4.12-4.3 2.74-7.61 6.53-9.91 11.38-2.3 4.86-3.45 10.42-3.45 16.7 0 6.36 1.18 12 3.52 16.94 2.34 4.93 5.92 8.82 10.73 11.67 4.81 2.84 10.94 4.26 18.38 4.26 2.8 0 5.46-.17 7.97-.53s4.81-.86 6.9-1.51 3.94-1.41 5.52-2.29l-.44-9.35a32.475 32.475 0 0 1-6.18 2.64 42.85 42.85 0 0 1-6.52 1.47c-2.2.32-4.28.47-6.24.47-5.27 0-9.61-.95-13.02-2.86-3.41-1.9-5.96-4.61-7.63-8.13-1.4-2.94-2.08-6.47-2.31-10.35h43.03c.21-1.25.35-2.5.41-3.73s.09-2.62.09-4.17c0-5.81-1.03-10.7-3.08-14.65-2.05-3.94-4.97-6.95-8.75-9zm-23.28 8.13c2.74-1.95 6.01-2.92 9.82-2.92 4.73 0 8.56 1.54 11.48 4.61 2.93 3.08 4.39 7.56 4.39 13.46 0 .17-.01.35-.01.53l-33.97.3c.32-2.84.87-5.54 1.91-7.91 1.51-3.43 3.64-6.12 6.38-8.07zm103.95-11.26c-1.93 0-4.04.33-6.34 1-2.3.67-4.57 1.98-6.81 3.92-2.23 1.95-4.21 4.82-5.93 8.63h-1.07l-.32-12.67-9.03.63v62.26h10.35v-36.72c1.13-3.64 2.45-6.55 3.96-8.75 1.5-2.2 3.06-3.85 4.67-4.96 1.61-1.1 3.18-1.84 4.71-2.19 1.53-.36 2.9-.53 4.11-.53 1.46 0 2.75.08 3.86.25 1.11.17 2.36.37 3.73.63l.94-10.42c-1.05-.38-2.16-.65-3.33-.81-1.16-.19-2.33-.27-3.5-.27zm43.61 10.51v53.25h10.42v-62.64l-10.42.38v9.01zm5.15-38.69c-2.34 0-4.22.63-5.65 1.91-1.42 1.28-2.13 3.19-2.13 5.75 0 2.59.71 4.51 2.13 5.77 1.42 1.25 3.26 1.88 5.52 1.88 2.39 0 4.27-.63 5.65-1.88 1.38-1.25 2.07-3.18 2.07-5.77 0-2.47-.69-4.36-2.07-5.68-1.38-1.32-3.22-1.98-5.52-1.98zm81.01 83.49c-1.84.53-3.53.79-5.08.79-3.94 0-6.85-1.13-8.75-3.39s-2.85-5.62-2.85-10.1V649h21.84v-8.22h-21.84v-22.46l-10.23 2.26v20.21h-11.99v8.22h11.99v35.33c0 4.61.74 8.38 2.23 11.33 1.49 2.95 3.67 5.15 6.56 6.59 2.88 1.44 6.4 2.16 10.54 2.16 1.8 0 3.55-.13 5.27-.4 1.72-.27 3.28-.65 4.71-1.13 1.42-.48 2.55-1.03 3.39-1.66l-.88-9.1c-1.43 1.1-3.07 1.93-4.91 2.45zm83.21-53.81c-1.88 5.18-3.74 10.35-5.59 15.5-1.84 5.14-3.7 10.33-5.58 15.56l-7.22 20.08h-1.13l-6.59-20.01c-1.8-5.36-3.55-10.61-5.27-15.75-1.72-5.15-3.48-10.42-5.27-15.81l-11.11.44c1.64 4.43 3.32 8.99 5.05 13.68s3.42 9.26 5.05 13.74l4.14 11.3c1.55 4.14 3.11 8.41 4.71 12.8 1.42 3.92 2.84 7.78 4.26 11.61-1.5 3.69-3.01 7.41-4.51 11.17-1.67 4.18-3.35 8.33-5.02 12.43l10.92-.38c1.8-4.51 3.8-9.56 5.99-15.12 2.2-5.57 4.87-12.32 8-20.27l6.91-17.51c2.05-5.19 3.81-9.67 5.3-13.43 1.49-3.76 2.85-7.2 4.08-10.32 1.23-3.11 2.52-6.34 3.86-9.69h-10.98z" class="st3"/></svg>